<svg width="47" height="49" viewBox="0 0 47 49" fill="none" xmlns="http://www.w3.org/2000/svg">
<mask id="mask0_1_55374" style="mask-type:alpha" maskUnits="userSpaceOnUse" x="6" y="10" width="33" height="34">
<path d="M21.0001 39.7266V21.4339H10.2001V39.7266H21.0001ZM24.6001 39.7266H35.4001V21.4339H24.6001V39.7266ZM27.5417 17.7753H35.4001C37.3883 17.7753 39.0001 19.4133 39.0001 21.4339V39.7266C39.0001 41.7471 37.3883 43.3851 35.4001 43.3851H10.2001C8.21187 43.3851 6.6001 41.7471 6.6001 39.7266V21.4339C6.6001 19.4133 8.21187 17.7753 10.2001 17.7753H18.0584L14.5694 14.5665C13.5437 13.6267 13.5437 12.103 14.5694 11.1631C15.5951 10.2233 17.2581 10.2233 18.2838 11.1631L22.8001 15.3014L27.3164 11.1631C28.3421 10.2233 30.0051 10.2233 31.0308 11.1631C32.0565 12.103 32.0565 13.6267 31.0308 14.5665L27.5417 17.7753Z" fill="white"/>
</mask>
<g mask="url(#mask0_1_55374)">
<path d="M44.4002 4.97046H1.2002V48.8729H44.4002V4.97046Z" fill="#3C6DFF"/>
</g>
<path d="M42.3999 18.3853H46.3999" stroke="#789AFF" stroke-linecap="round" stroke-linejoin="round"/>
<path d="M44.3999 16.6431V20.1274" stroke="#789AFF" stroke-linecap="round" stroke-linejoin="round"/>
<path d="M12.3999 2.53149H16.3999" stroke="#789AFF" stroke-linecap="round" stroke-linejoin="round"/>
<path d="M14.3999 0.789307V4.27363" stroke="#789AFF" stroke-linecap="round" stroke-linejoin="round"/>
<path d="M26.4002 4.97052C27.0629 4.97052 27.6002 4.42452 27.6002 3.75101C27.6002 3.07749 27.0629 2.53149 26.4002 2.53149C25.7375 2.53149 25.2002 3.07749 25.2002 3.75101C25.2002 4.42452 25.7375 4.97052 26.4002 4.97052Z" fill="#B4C7FF"/>
<path d="M1.8 20.8241C2.79411 20.8241 3.6 20.0051 3.6 18.9948C3.6 17.9845 2.79411 17.1655 1.8 17.1655C0.805888 17.1655 0 17.9845 0 18.9948C0 20.0051 0.805888 20.8241 1.8 20.8241Z" fill="#B4C7FF"/>
<path d="M4.2002 5.58032L6.60019 9.23886" stroke="#3C6DFF" stroke-linecap="round" stroke-linejoin="round"/>
<path d="M37.7998 3.14111L35.3998 6.79965" stroke="#3C6DFF" stroke-linecap="round" stroke-linejoin="round"/>
</svg>
