<svg fill="none" height="96" viewBox="0 0 96 96" width="96" xmlns="http://www.w3.org/2000/svg">
  <path
    d="M0 48C0 21.4903 21.4903 0 48 0C74.5097 0 96 21.4903 96 48C96 74.5097 74.5097 96 48 96C21.4903 96 0 74.5097 0 48Z"
    fill="#F2F3F6"/>
  <g clip-path="url(#clip0_7633_19700)">
    <path clip-rule="evenodd" d="M48 59.2901C46.9541 59.2901 46.1053 58.5019 46.1053 57.4535V57.3347C46.1053 56.2888 46.9541 55.44 48 55.44C49.0459 55.44 49.8947 56.2888 49.8947 57.3347C49.8947 58.3806 49.0459 59.2901 48 59.2901ZM46.0952 38.6728C46.0952 37.6269 46.944 36.7781 47.9899 36.7781C49.0358 36.7781 49.8846 37.6269 49.8846 38.6728V49.5335C49.8846 50.5794 49.0358 51.4282 47.9899 51.4282C46.944 51.4282 46.0952 50.5794 46.0952 49.5335V38.6728ZM48 24C34.7672 24 24 34.7672 24 48C24 61.2354 34.7672 72 48 72C61.2328 72 72 61.2354 72 48C72 34.7672 61.2328 24 48 24Z"
          fill="#FEC003"
          fill-rule="evenodd"/>
  </g>
  <defs>
    <clipPath id="clip0_7633_19700">
      <rect fill="white" height="48" transform="translate(24 24)" width="48"/>
    </clipPath>
  </defs>
</svg>
