<svg width="312" height="136" viewBox="0 0 312 136" fill="none" xmlns="http://www.w3.org/2000/svg">
<g clip-path="url(#clip0_1223_40829)">
<path d="M0 20C0 8.95431 8.95431 0 20 0H292C303.046 0 312 8.95431 312 20V116C312 127.046 303.046 136 292 136H20C8.95431 136 0 127.046 0 116V20Z" fill="url(#paint0_linear_1223_40829)"/>
<mask id="mask0_1223_40829" style="mask-type:alpha" maskUnits="userSpaceOnUse" x="92" y="0" width="220" height="136">
<rect x="92" width="220" height="136" fill="#D9D9D9"/>
</mask>
<g mask="url(#mask0_1223_40829)">
<rect width="228.277" height="343.982" transform="matrix(-0.672363 -0.740222 -0.815161 0.579234 476.907 145.656)" fill="white" fill-opacity="0.11"/>
<rect width="228.277" height="343.982" transform="matrix(-0.672363 -0.740222 -0.815161 0.579234 495.73 160.641)" fill="white" fill-opacity="0.16"/>
</g>
</g>
<defs>
<linearGradient id="paint0_linear_1223_40829" x1="315.858" y1="-5.66272e-06" x2="11.4577" y2="99.2193" gradientUnits="userSpaceOnUse">
<stop stop-color="#53C1E9"/>
<stop offset="1" stop-color="#C6EDF8"/>
</linearGradient>
<clipPath id="clip0_1223_40829">
<path d="M0 20C0 8.95431 8.95431 0 20 0H292C303.046 0 312 8.95431 312 20V116C312 127.046 303.046 136 292 136H20C8.95431 136 0 127.046 0 116V20Z" fill="white"/>
</clipPath>
</defs>
</svg>
