<svg fill="none" height="164" viewBox="0 0 200 201" width="164" xmlns="http://www.w3.org/2000/svg">
  <g id="Group 33">
    <g id="Group-3">
      <g id="Illustration">
        <path clip-rule="evenodd" d="M43.1989 40.3214L44.3916 39.6888L46.0994 38.7547L46.9925 38.2506L47.8605 37.7463L48.7009 37.2406L49.5118 36.7323C49.6444 36.6473 49.7756 36.5621 49.9055 36.4768L50.6678 35.9625L51.395 35.4426C55.058 32.7406 57.2274 29.7711 56.54 25.8056C55.5201 19.9213 45.5364 19.3332 38.4298 23.212C31.3233 27.0908 24.3735 36.3237 27.3896 41.4916C29.121 44.4583 32.3866 44.5615 36.1988 43.3775L36.9432 43.1326C37.0683 43.0893 37.1939 43.0447 37.32 42.999L38.0819 42.7107L38.8535 42.3966C38.9828 42.3422 39.1124 42.2869 39.2424 42.2306L40.0255 41.8826L40.8142 41.5151L42.0046 40.933L43.1989 40.3214Z" fill="#F0F5FF"
              fill-rule="evenodd"
              id="Path"/>
        <path clip-rule="evenodd" d="M101.316 157.225L103.652 157.148L107.13 157.014L109.421 156.909L111.691 156.791L113.937 156.657L116.159 156.507C116.896 156.455 117.629 156.399 118.357 156.34L120.53 156.154L122.676 155.947C152.187 152.943 174.017 143.765 179.36 112.959C185.799 75.8428 142.416 42.7709 103.515 44.1231C64.6137 45.4753 16.4184 78.3078 20.2105 117.205C23.4718 150.656 54.0661 157.113 87.3116 157.406L89.6351 157.416C90.0229 157.416 90.411 157.416 90.7994 157.415L93.1323 157.398C93.9107 157.39 94.6897 157.379 95.4691 157.366L97.808 157.319L101.316 157.225Z" fill="#F0F5FF"
              fill-rule="evenodd"
              id="Path_2"/>
        <path d="M100 180.75C136.819 180.75 166.667 177.766 166.667 174.084C166.667 170.402 136.819 167.417 100 167.417C63.1812 167.417 33.3335 170.402 33.3335 174.084C33.3335 177.766 63.1812 180.75 100 180.75Z"
              fill="#F0F5FF"
              id="Path_3"/>
        <path d="M44.6011 125.306L44.6155 125.537L44.6165 134.134L53.2127 134.135C54.2323 134.135 55.0589 134.961 55.0589 135.981C55.0589 136.922 54.3546 137.699 53.4443 137.813L53.2127 137.827L44.6165 137.828L44.6155 146.424C44.6155 147.444 43.7889 148.27 42.7693 148.27C41.8281 148.27 41.0515 147.566 40.9375 146.656L40.9232 146.424L40.9221 137.828L32.3259 137.827C31.3063 137.827 30.4797 137 30.4797 135.981C30.4797 135.04 31.184 134.263 32.0943 134.149L32.3259 134.135L40.9221 134.134L40.9232 125.537C40.9232 124.518 41.7497 123.691 42.7693 123.691C43.7105 123.691 44.4872 124.396 44.6011 125.306Z"
              fill="#B4C7FF"
              id="Path_4"/>
        <path d="M151.678 47.6728L151.684 47.8181L151.685 55.0654L158.932 55.0658C159.862 55.0658 160.616 55.8198 160.616 56.75C160.616 57.6312 159.939 58.3543 159.077 58.428L158.932 58.4342L151.685 58.4345L151.684 65.6819C151.684 66.612 150.93 67.3661 150 67.3661C149.119 67.3661 148.396 66.6893 148.322 65.8272L148.316 65.6819L148.315 58.4345L141.068 58.4342C140.138 58.4342 139.384 57.6802 139.384 56.75C139.384 55.8688 140.061 55.1456 140.923 55.072L141.068 55.0658L148.315 55.0654L148.316 47.8181C148.316 46.888 149.07 46.1339 150 46.1339C150.881 46.1339 151.604 46.8107 151.678 47.6728Z"
              fill="#B4C7FF"
              id="Path_5"/>
        <path clip-rule="evenodd" d="M33.3333 67.4164C33.3333 63.7345 30.3487 60.75 26.6667 60.75C22.9847 60.75 20 63.7345 20 67.4164C20 71.0982 22.9847 74.0833 26.6667 74.0833C30.3487 74.0833 33.3333 71.0982 33.3333 67.4164Z" fill="#F0F5FF"
              fill-rule="evenodd"
              id="Path_6"/>
      </g>
      <g id="Group-6">
        <path d="M70.4615 76.1347V132.75C70.4615 138.188 74.8697 142.596 80.3076 142.596H118.461C123.899 142.596 128.308 138.188 128.308 132.75V76.1347C128.308 70.6968 123.899 66.2886 118.461 66.2886H80.3076C74.8697 66.2886 70.4615 70.6968 70.4615 76.1347Z"
              fill="#B4C7FF"
              id="Path_7"/>
        <path d="M103.966 116.75C106.768 116.75 109.57 118.948 109.57 122.17C109.57 124.122 108.51 125.742 107.169 127.152C107.508 127.23 107.865 127.59 108.169 127.59C109 127.59 109.365 127.384 109.796 126.976C110.227 126.568 110.638 125.873 111.007 125.056C111.377 124.24 111.689 123.342 112.16 122.466C112.396 122.028 112.673 121.577 113.145 121.154C113.618 120.731 114.384 120.363 115.174 120.363C116.256 120.363 117.313 120.946 117.852 121.542C118.391 122.137 118.596 122.666 118.859 123.017C119.713 124.155 120.488 124.245 120.778 124.936L120.843 125.118C120.99 125.611 120.92 126.146 120.644 126.586C120.117 127.426 119.008 127.68 118.167 127.153L117.915 126.987C117.234 126.516 116.493 125.832 115.692 124.936C115.456 124.672 115.461 124.59 115.349 124.414C115.105 124.921 114.832 125.638 114.437 126.51C113.989 127.5 113.408 128.612 112.408 129.559C111.409 130.506 109.906 131.203 108.169 131.203C106.472 131.203 105.081 130.182 103.645 129.34C101.964 130.207 99.5255 131.519 97.5964 131.519C95.6673 131.519 96.1031 128.444 97.5964 127.906C99.0897 127.368 99.8632 127.021 100.668 126.757C99.5757 125.366 98.3617 123.98 98.3617 122.17C98.3617 118.948 101.164 116.75 103.966 116.75ZM104.308 120.442C103.385 120.442 102.462 120.952 102.462 122.24C102.462 123.209 103.215 124.36 104.142 125.365C105.3 124.328 106.154 123.141 106.154 122.24C106.154 120.952 105.231 120.442 104.308 120.442Z"
              fill="#3C6DFF"
              id="Combined-Shape"/>
        <path d="M80.8442 84.5706H117.925" id="Line" stroke="#789AFF" stroke-linecap="round" stroke-linejoin="round"
              stroke-width="3"/>
        <path d="M80.8442 95.6987H117.925" id="Line-Copy" stroke="#789AFF" stroke-linecap="round" stroke-linejoin="round"
              stroke-width="3"/>
        <path d="M80.906 106.468H98.5812" id="Line-Copy-2" stroke="#789AFF" stroke-linecap="round" stroke-linejoin="round"
              stroke-width="3"/>
      </g>
    </g>
  </g>
</svg>
