<svg width="32" height="32" viewBox="0 0 32 32" fill="none" xmlns="http://www.w3.org/2000/svg">
<path fill-rule="evenodd" clip-rule="evenodd" d="M18.6739 21.4707H11.6126C11.0606 21.4707 10.6126 21.0227 10.6126 20.4707C10.6126 19.9187 11.0606 19.4707 11.6126 19.4707H18.6739C19.2259 19.4707 19.6739 19.9187 19.6739 20.4707C19.6739 21.0227 19.2259 21.4707 18.6739 21.4707ZM11.6113 14.5627H15.9993C16.5513 14.5627 16.9993 15.0107 16.9993 15.5627C16.9993 16.1147 16.5513 16.5627 15.9993 16.5627H11.6113C11.0593 16.5627 10.6113 16.1147 10.6113 15.5627C10.6113 15.0107 11.0593 14.5627 11.6113 14.5627ZM26.4699 12.1253H22.5193C20.1633 12.1133 18.2193 10.1627 18.2193 7.784V3.59733C18.2193 3.27333 17.9619 3 17.6273 3H10.754C7.54995 3 4.94995 5.63867 4.94995 8.86267V22.8773C4.94995 26.2573 7.67795 29 11.0246 29H21.2579C24.4619 29 27.0499 26.3867 27.0499 23.1627V12.7107C27.0499 12.3853 26.7926 12.1253 26.4699 12.1253Z" fill="white"/>
<path fill-rule="evenodd" clip-rule="evenodd" d="M22.6902 10.227C23.5876 10.2363 24.8342 10.2403 25.8929 10.2363C26.4342 10.235 26.7102 9.5803 26.3342 9.18696C25.6556 8.47496 24.7102 7.4803 23.7596 6.48296C22.8062 5.48163 21.8489 4.47496 21.1516 3.7443C20.7676 3.33896 20.0942 3.61763 20.0942 4.17763V7.6043C20.0942 9.04296 21.2662 10.227 22.6902 10.227Z" fill="white"/>
</svg>
